<svg width="1200" height="700" viewBox="0 0 1200 700" fill="none" xmlns="http://www.w3.org/2000/svg">
  <rect width="1200" height="700" rx="32" fill="#0F1117"/>
  <rect x="44" y="44" width="1112" height="612" rx="28" fill="#1A1D2E"/>
  <text x="84" y="104" fill="white" font-family="Segoe UI, Arial, sans-serif" font-size="38" font-weight="700">Dashboard analytics preview</text>
  <rect x="84" y="144" width="320" height="214" rx="24" fill="#20263B"/>
  <circle cx="244" cy="250" r="86" fill="#26314D"/>
  <path d="M244 164 A86 86 0 1 1 173 299" stroke="#00D4AA" stroke-width="18" stroke-linecap="round"/>
  <text x="214" y="258" fill="white" font-family="Segoe UI, Arial, sans-serif" font-size="48" font-weight="700">85</text>
  <text x="192" y="292" fill="#9CABCA" font-family="Segoe UI, Arial, sans-serif" font-size="18">Health Score</text>
  <rect x="434" y="144" width="330" height="214" rx="24" fill="#20263B"/>
  <text x="466" y="188" fill="white" font-family="Segoe UI, Arial, sans-serif" font-size="24" font-weight="700">Symptom frequency</text>
  <rect x="476" y="274" width="36" height="46" rx="12" fill="#00A3D5"/>
  <rect x="540" y="226" width="36" height="94" rx="12" fill="#0073FF"/>
  <rect x="604" y="202" width="36" height="118" rx="12" fill="#00D4AA"/>
  <rect x="668" y="250" width="36" height="70" rx="12" fill="#6A3DE8"/>
  <text x="468" y="340" fill="#9CABCA" font-family="Segoe UI, Arial, sans-serif" font-size="16">fever  cough  fatigue  headache</text>
  <rect x="794" y="144" width="322" height="214" rx="24" fill="#20263B"/>
  <text x="826" y="188" fill="white" font-family="Segoe UI, Arial, sans-serif" font-size="24" font-weight="700">Condition trend</text>
  <circle cx="952" cy="260" r="74" fill="#26314D"/>
  <path d="M952 186 A74 74 0 0 1 1019 227" stroke="#00A3D5" stroke-width="24" stroke-linecap="round"/>
  <path d="M1019 227 A74 74 0 0 1 981 327" stroke="#00D4AA" stroke-width="24" stroke-linecap="round"/>
  <path d="M981 327 A74 74 0 0 1 889 317" stroke="#6A3DE8" stroke-width="24" stroke-linecap="round"/>
  <path d="M889 317 A74 74 0 0 1 952 186" stroke="#F6B332" stroke-width="24" stroke-linecap="round"/>
  <rect x="84" y="392" width="1032" height="220" rx="24" fill="#20263B"/>
  <text x="116" y="438" fill="white" font-family="Segoe UI, Arial, sans-serif" font-size="24" font-weight="700">Recent history</text>
  <rect x="116" y="470" width="968" height="40" rx="12" fill="#16213B"/>
  <rect x="116" y="526" width="968" height="40" rx="12" fill="#16213B"/>
  <text x="146" y="496" fill="#DDE8FF" font-family="Segoe UI, Arial, sans-serif" font-size="18">Apr 11 • 3 symptoms • Migraine • Medium urgency</text>
  <text x="146" y="552" fill="#DDE8FF" font-family="Segoe UI, Arial, sans-serif" font-size="18">Apr 10 • 2 symptoms • Common Cold • Low urgency</text>
</svg>
